<svg id="visual" viewBox="0 0 900 600" width="900" height="600" xmlns="http://www.w3.org/2000/svg" xmlns:xlink="http://www.w3.org/1999/xlink" version="1.1"><path d="M0 109L13.7 107C27.3 105 54.7 101 82 99C109.3 97 136.7 97 163.8 96C191 95 218 93 245.2 91C272.3 89 299.7 87 327 97C354.3 107 381.7 129 409 132C436.3 135 463.7 119 491 114C518.3 109 545.7 115 573 109C600.3 103 627.7 85 654.8 75C682 65 709 63 736.2 77C763.3 91 790.7 121 818 137C845.3 153 872.7 155 886.3 156L900 157L900 0L886.3 0C872.7 0 845.3 0 818 0C790.7 0 763.3 0 736.2 0C709 0 682 0 654.8 0C627.7 0 600.3 0 573 0C545.7 0 518.3 0 491 0C463.7 0 436.3 0 409 0C381.7 0 354.3 0 327 0C299.7 0 272.3 0 245.2 0C218 0 191 0 163.8 0C136.7 0 109.3 0 82 0C54.7 0 27.3 0 13.7 0L0 0Z" fill="#fbc8c8"></path><path d="M0 217L13.7 206C27.3 195 54.7 173 82 173C109.3 173 136.7 195 163.8 198C191 201 218 185 245.2 182C272.3 179 299.7 189 327 195C354.3 201 381.7 203 409 195C436.3 187 463.7 169 491 172C518.3 175 545.7 199 573 205C600.3 211 627.7 199 654.8 186C682 173 709 159 736.2 161C763.3 163 790.7 181 818 202C845.3 223 872.7 247 886.3 259L900 271L900 155L886.3 154C872.7 153 845.3 151 818 135C790.7 119 763.3 89 736.2 75C709 61 682 63 654.8 73C627.7 83 600.3 101 573 107C545.7 113 518.3 107 491 112C463.7 117 436.3 133 409 130C381.7 127 354.3 105 327 95C299.7 85 272.3 87 245.2 89C218 91 191 93 163.8 94C136.7 95 109.3 95 82 97C54.7 99 27.3 103 13.7 105L0 107Z" fill="#f9bbbb"></path><path d="M0 289L13.7 272C27.3 255 54.7 221 82 218C109.3 215 136.7 243 163.8 252C191 261 218 251 245.2 253C272.3 255 299.7 269 327 275C354.3 281 381.7 279 409 263C436.3 247 463.7 217 491 222C518.3 227 545.7 267 573 273C600.3 279 627.7 251 654.8 235C682 219 709 215 736.2 221C763.3 227 790.7 243 818 262C845.3 281 872.7 303 886.3 314L900 325L900 269L886.3 257C872.7 245 845.3 221 818 200C790.7 179 763.3 161 736.2 159C709 157 682 171 654.8 184C627.7 197 600.3 209 573 203C545.7 197 518.3 173 491 170C463.7 167 436.3 185 409 193C381.7 201 354.3 199 327 193C299.7 187 272.3 177 245.2 180C218 183 191 199 163.8 196C136.7 193 109.3 171 82 171C54.7 171 27.3 193 13.7 204L0 215Z" fill="#f7aeae"></path><path d="M0 415L13.7 405C27.3 395 54.7 375 82 388C109.3 401 136.7 447 163.8 444C191 441 218 389 245.2 367C272.3 345 299.7 353 327 380C354.3 407 381.7 453 409 457C436.3 461 463.7 423 491 408C518.3 393 545.7 401 573 395C600.3 389 627.7 369 654.8 380C682 391 709 433 736.2 451C763.3 469 790.7 463 818 449C845.3 435 872.7 413 886.3 402L900 391L900 323L886.3 312C872.7 301 845.3 279 818 260C790.7 241 763.3 225 736.2 219C709 213 682 217 654.8 233C627.7 249 600.3 277 573 271C545.7 265 518.3 225 491 220C463.7 215 436.3 245 409 261C381.7 277 354.3 279 327 273C299.7 267 272.3 253 245.2 251C218 249 191 259 163.8 250C136.7 241 109.3 213 82 216C54.7 219 27.3 253 13.7 270L0 287Z" fill="#f7a2a2"></path><path d="M0 601L13.7 601C27.3 601 54.7 601 82 601C109.3 601 136.7 601 163.8 601C191 601 218 601 245.2 601C272.3 601 299.7 601 327 601C354.3 601 381.7 601 409 601C436.3 601 463.7 601 491 601C518.3 601 545.7 601 573 601C600.3 601 627.7 601 654.8 601C682 601 709 601 736.2 601C763.3 601 790.7 601 818 601C845.3 601 872.7 601 886.3 601L900 601L900 389L886.3 400C872.7 411 845.3 433 818 447C790.7 461 763.3 467 736.2 449C709 431 682 389 654.8 378C627.7 367 600.3 387 573 393C545.7 399 518.3 391 491 406C463.7 421 436.3 459 409 455C381.7 451 354.3 405 327 378C299.7 351 272.3 343 245.2 365C218 387 191 439 163.8 442C136.7 445 109.3 399 82 386C54.7 373 27.3 393 13.7 403L0 413Z" fill="#f7a2a2"></path></svg>